<svg id="Layer_1" data-name="Layer 1" xmlns="http://www.w3.org/2000/svg" viewBox="0 0 278.13 284.62"><title>logo-ec</title><rect x="0.33" y="168.47" width="220.79" height="12.47" transform="translate(-99.65 218.16) rotate(-72)"/><rect x="48.21" y="63.52" width="12.47" height="220.79" rx="4.75" ry="4.75" transform="translate(-44.96 7.26) rotate(-12)"/><rect x="67.85" y="249.13" width="220.79" height="12.47" rx="0.49" ry="0.49" transform="translate(-59.19 34.77) rotate(-12)"/><rect x="24.32" y="44.85" width="214.04" height="12.09" rx="0.44" ry="0.44" transform="translate(-17.71 20.55) rotate(-12)"/><rect x="105.27" y="146.17" width="220.79" height="12.47" transform="translate(-5.94 302.55) rotate(-72)"/><rect x="50.44" y="170.77" width="153" height="12.47" transform="translate(-44.02 22.39) rotate(-12)"/><rect x="270.77" y="192.18" width="12.47" height="48.27" transform="translate(-48.91 54.45) rotate(-12)"/><rect x="11.41" y="22.14" width="23.3" height="8.04" transform="translate(-18.42 33.31) rotate(-74.09)"/><rect x="83.04" y="14.51" width="8.04" height="23.3" transform="translate(-3 61.36) rotate(-45)"/><rect x="5.41" y="130.14" width="23.3" height="8.04" transform="translate(-126.64 105.94) rotate(-74.09)"/><rect x="18.41" y="238.14" width="23.3" height="8.04" transform="translate(-221.07 196.85) rotate(-74.09)"/><rect x="264.04" y="116.51" width="8.04" height="23.3" transform="translate(-34.91 169.79) rotate(-35.14)"/><rect x="265.41" y="16.14" width="23.3" height="8.04" transform="translate(171.74 273.23) rotate(-74.09)"/><rect x="245.04" y="268.51" width="8.04" height="23.3" transform="translate(-93.6 99.5) rotate(-20.91)"/></svg>